# xmcd
#
# Track frame offsets:
#	150
#	17380
#	35405
#	54040
#	68495
#	81502
#	95812
#	109895
#	123647
#	139312
#	153815
#	172037
#	191112
#	200527
#	216300
#	231702
#
# Disc length: 3337
#
# Revision: 1
# Processed by: cddbd v1.5.1PL0 Copyright (c) Steve Scherf et al.
# Submitted via: ExactAudioCopy v0.95a3
# Normalized: r0:TDELIM( - )
#
DISCID=e90d0710
DTITLE=Various Artist - Country songs
DYEAR=1900
DGENRE=Country
TTITLE0=Kenny Rogers - Lady
TTITLE1=Smokie n Maggie Reilly - the Wrong reasons
TTITLE2=John Denver - Rocky mountain high
TTITLE3=Dr Hook n Ray Sawyer - Always crying over you
TTITLE4=Sandy Posey n Jordanaires - I take it back
TTITLE5=Bellamy Brothers - Big hair
TTITLE6=Tamra Rosanes - More than I can say
TTITLE7=Jordanaires - Sweet dreams
TTITLE8=Kenny Rogers - Through the years
TTITLE9=John Denver - Dreamland express
TTITLE10=Bellamy Brothers - Our love
TTITLE11=Dr Hook n Ray Sawyer - Misisng you takes up most of my time
TTITLE12=Charlie McCoy - Shenandoah
TTITLE13=Smokie - She rides wild horses
TTITLE14=Svenne n Lotta - All I have to do is dream
TTITLE15=Johnny Logan n Jordanaires - Miss you nights
EXTD=
EXTT0=
EXTT1=
EXTT2=
EXTT3=
EXTT4=
EXTT5=
EXTT6=
EXTT7=
EXTT8=
EXTT9=
EXTT10=
EXTT11=
EXTT12=
EXTT13=
EXTT14=
EXTT15=
PLAYORDER=
